<svg width="29" height="28" viewBox="0 0 29 28" fill="none" xmlns="http://www.w3.org/2000/svg">
    <path d="M6.88284 3.99004C6.83337 4.81796 6.95483 5.6472 7.23963 6.42615C7.52444 7.20511 7.96651 7.91712 8.53833 8.51788C7.42692 8.83654 6.43187 9.4709 5.67392 10.344C4.91597 11.2171 4.42769 12.2914 4.26834 13.4365C3.88405 16.1847 4.44782 18.9817 5.86667 21.3664L6.275 22.0547C6.29048 22.08 6.30722 22.1046 6.32517 22.1282L7.97717 24.3519C8.32707 24.8232 8.7755 25.2125 9.29121 25.4928C9.80693 25.7732 10.3776 25.9377 10.9633 25.975C11.5491 26.0123 12.136 25.9215 12.6831 25.7089C13.2303 25.4963 13.7245 25.167 14.1313 24.7439C14.1789 24.6944 14.236 24.655 14.2991 24.6282C14.3623 24.6013 14.4302 24.5874 14.4988 24.5874C14.5675 24.5874 14.6354 24.6013 14.6985 24.6282C14.7617 24.655 14.8188 24.6944 14.8663 24.7439C15.2732 25.167 15.7674 25.4963 16.3145 25.7089C16.8616 25.9215 17.4485 26.0123 18.0343 25.975C18.6201 25.9377 19.1907 25.7732 19.7065 25.4928C20.2222 25.2125 20.6706 24.8232 21.0205 24.3519L22.6725 22.127C22.6901 22.1034 22.7064 22.0789 22.7215 22.0535L23.131 21.3652C24.5505 18.9816 25.1155 16.1855 24.7328 13.4377C24.6199 12.6281 24.3419 11.8502 23.9162 11.1523C23.4905 10.4544 22.926 9.85136 22.2578 9.38043C21.5896 8.90951 20.8318 8.58075 20.0314 8.41452C19.231 8.2483 18.405 8.24813 17.6045 8.41404L15.3867 8.87371H15.3832C15.4182 7.96371 15.5605 6.98371 15.8393 6.14604C16.1777 5.13338 16.6467 4.52438 17.1693 4.30738C17.3836 4.21795 17.5536 4.04708 17.6419 3.83233C17.7301 3.61759 17.7295 3.37657 17.6401 3.16229C17.5507 2.94802 17.3798 2.77805 17.165 2.68976C16.9503 2.60148 16.7093 2.60212 16.495 2.69154C15.2677 3.20371 14.57 4.41821 14.1792 5.59188L14.1255 5.75754C13.8382 5.20239 13.4671 4.69478 13.0253 4.25254C12.4203 3.6468 11.6934 3.17651 10.893 2.87281C10.0925 2.5691 9.23659 2.43892 8.382 2.49088C7.992 2.51333 7.6238 2.67813 7.34725 2.95404C7.0707 3.22995 6.90503 3.59776 6.88167 3.98771L6.88284 3.99004ZM10.2965 13.1075C9.89167 13.188 9.52067 13.4727 9.2885 14.0152C9.05167 14.5682 8.96767 15.3884 9.22317 16.4115C9.27569 16.6353 9.23806 16.8708 9.1184 17.067C8.99873 17.2633 8.80666 17.4045 8.58368 17.4603C8.36069 17.5161 8.12472 17.4819 7.92674 17.3651C7.72877 17.2483 7.5847 17.0584 7.52567 16.8362C7.199 15.5272 7.26083 14.3045 7.67967 13.3257C8.10317 12.3375 8.89883 11.6014 9.9535 11.3914C10.0678 11.3644 10.1864 11.3607 10.3021 11.3805C10.4179 11.4003 10.5285 11.4432 10.6273 11.5067C10.7261 11.5701 10.8112 11.6528 10.8773 11.7499C10.9435 11.8469 10.9895 11.9562 11.0125 12.0714C11.0356 12.1865 11.0352 12.3051 11.0114 12.4202C10.9876 12.5352 10.9409 12.6442 10.8741 12.7408C10.8073 12.8374 10.7217 12.9195 10.6225 12.9823C10.5232 13.0451 10.4124 13.0873 10.2965 13.1064V13.1075Z" fill="#2F1A47"/>
</svg>
