<svg width="29" height="28" viewBox="0 0 29 28" fill="none" xmlns="http://www.w3.org/2000/svg">
    <path d="M10.6136 11.6788C10.6721 11.8548 10.6584 12.0468 10.5755 12.2127C10.4925 12.3786 10.3471 12.5048 10.1712 12.5636C9.95627 12.6315 9.75691 12.7413 9.58463 12.8867C9.41235 13.0321 9.27055 13.2101 9.1674 13.4106C8.9084 13.8992 8.7306 14.7028 8.8944 16.0146C8.91167 16.1959 8.85754 16.3769 8.7435 16.519C8.62947 16.6611 8.46451 16.7532 8.28369 16.7756C8.10286 16.798 7.92042 16.749 7.77513 16.6391C7.62984 16.5291 7.53315 16.3669 7.5056 16.1868C7.3194 14.6986 7.4916 13.5772 7.9326 12.7526C8.3806 11.9126 9.0624 11.4576 9.7288 11.2364C9.9048 11.1778 10.0968 11.1915 10.2627 11.2745C10.4286 11.3574 10.5548 11.5028 10.6136 11.6788ZM17.5212 4.16355C17.6907 4.09982 17.8288 3.97291 17.9067 3.80946C17.9846 3.64602 17.9961 3.45875 17.9389 3.28699C17.8816 3.11523 17.76 2.97233 17.5997 2.88831C17.4393 2.80428 17.2526 2.78566 17.0788 2.83635C15.7656 3.27315 14.9466 4.35115 14.4664 5.50615C14.4013 5.66226 14.3415 5.82055 14.2872 5.98075C14.0254 5.48404 13.6903 5.02955 13.2932 4.63255C12.7551 4.09328 12.1124 3.66978 11.4045 3.38809C10.6967 3.1064 9.93871 2.97248 9.1772 2.99455C8.7872 3.00513 8.41607 3.16469 8.14006 3.44043C7.86406 3.71618 7.70415 4.08716 7.6932 4.47715C7.67112 5.24889 7.80927 6.01682 8.0989 6.73248C8.38854 7.44814 8.82339 8.096 9.376 8.63515C8.19999 8.88989 7.13724 9.51647 6.34502 10.4222C5.5528 11.3278 5.0732 12.4645 4.9772 13.664L4.9688 13.7676C4.78397 16.0736 5.27535 18.3836 6.3828 20.4147L6.8854 21.3359C6.8994 21.3597 6.9134 21.3836 6.9302 21.406L8.3302 23.3687C8.6475 23.8131 9.05781 24.183 9.53257 24.4527C10.0073 24.7225 10.5352 24.8855 11.0793 24.9305C11.6235 24.9756 12.1709 24.9015 12.6836 24.7135C13.1962 24.5255 13.6618 24.2281 14.0478 23.842C14.1071 23.7826 14.1775 23.7356 14.2549 23.7035C14.3324 23.6714 14.4154 23.6549 14.4993 23.6549C14.5832 23.6549 14.6662 23.6714 14.7437 23.7035C14.8211 23.7356 14.8915 23.7826 14.9508 23.842C15.3368 24.2281 15.8024 24.5255 16.315 24.7135C16.8277 24.9015 17.3751 24.9756 17.9193 24.9305C18.4634 24.8855 18.9913 24.7225 19.466 24.4527C19.9408 24.183 20.3511 23.8131 20.6684 23.3687L22.0684 21.4074C22.0852 21.3845 22.1006 21.3606 22.1146 21.3359L22.6158 20.4147C23.7237 18.3837 24.2156 16.0738 24.0312 13.7676L24.0228 13.664C23.9608 12.891 23.739 12.1393 23.3713 11.4566C23.0037 10.7738 22.4983 10.1749 21.8871 9.69763C21.2759 9.2204 20.5722 8.87532 19.8207 8.68423C19.0691 8.49315 18.2861 8.46022 17.5212 8.58755L15.2 8.97395C15.214 8.02055 15.382 6.94815 15.7572 6.04375C16.1506 5.09875 16.733 4.42675 17.5212 4.16355ZM12.7052 8.79195L12.4896 8.75555C11.668 8.59668 10.913 8.1948 10.3224 7.60195C9.91765 7.19855 9.59979 6.71654 9.38839 6.18564C9.17699 5.65473 9.07653 5.08616 9.0932 4.51495C9.09357 4.48252 9.10671 4.45154 9.12978 4.42874C9.15284 4.40594 9.18397 4.39315 9.2164 4.39315C9.78737 4.37667 10.3557 4.47722 10.8863 4.68862C11.417 4.90001 11.8988 5.21778 12.302 5.62235C13.1518 6.47215 13.562 7.59355 13.5312 8.70935C13.5308 8.74154 13.5179 8.77231 13.4951 8.79507C13.4724 8.81784 13.4416 8.83079 13.4094 8.83115C13.174 8.83772 12.9384 8.82461 12.7052 8.79195ZM12.246 10.1346L12.4896 10.1752L13.5788 10.3572C14.1887 10.4589 14.8113 10.4589 15.4212 10.3572L17.7508 9.96795C18.3246 9.87224 18.9121 9.89679 19.476 10.04C20.0398 10.1833 20.5678 10.4421 21.0264 10.8002C21.4849 11.1582 21.8641 11.6075 22.1399 12.1198C22.4157 12.6321 22.582 13.196 22.6284 13.776L22.6354 13.8795C22.7983 15.9147 22.3643 17.9532 21.3866 19.7456L20.905 20.6276L19.5288 22.554C19.3298 22.8329 19.0724 23.0652 18.7745 23.2346C18.4766 23.4039 18.1453 23.5064 17.8038 23.5348C17.4623 23.5631 17.1187 23.5168 16.7969 23.3989C16.4752 23.281 16.1829 23.0944 15.9406 22.8521C15.5583 22.4699 15.0399 22.2552 14.4993 22.2552C13.9587 22.2552 13.4403 22.4699 13.058 22.8521C12.8157 23.0944 12.5234 23.281 12.2017 23.3989C11.8799 23.5168 11.5363 23.5631 11.1948 23.5348C10.8533 23.5064 10.522 23.4039 10.2241 23.2346C9.92625 23.0652 9.66883 22.8329 9.4698 22.554L8.0936 20.6276L7.612 19.7456C6.63428 17.9532 6.20031 15.9147 6.3632 13.8795L6.3716 13.776C6.41797 13.196 6.58432 12.6321 6.8601 12.1198C7.13587 11.6075 7.51507 11.1582 7.97364 10.8002C8.43221 10.4421 8.96016 10.1833 9.52402 10.04C10.0879 9.89679 10.6754 9.87224 11.2492 9.96795L12.246 10.1346Z" fill="black"/>
</svg>
