<svg width="28" height="28" viewBox="0 0 28 28" fill="none" xmlns="http://www.w3.org/2000/svg">
    <path d="M21.2917 3.79163C21.5031 3.79163 21.7074 3.86821 21.8668 4.00719C22.0261 4.14617 22.1297 4.33815 22.1585 4.54763L22.1667 4.66663V23.3333C22.1666 23.555 22.0824 23.7684 21.931 23.9304C21.7797 24.0924 21.5725 24.1909 21.3513 24.206C21.1301 24.2211 20.9115 24.1517 20.7395 24.0118C20.5675 23.8719 20.4551 23.6719 20.4248 23.4523L20.4167 23.3333V17.5H17.7917C17.5802 17.4999 17.3759 17.4234 17.2166 17.2844C17.0572 17.1454 16.9536 16.9534 16.9248 16.744L16.9167 16.625V8.16663C16.9167 7.0063 17.3776 5.89351 18.1981 5.07303C19.0185 4.25256 20.1313 3.79163 21.2917 3.79163ZM14.2917 3.79163C14.5031 3.79163 14.7074 3.86821 14.8668 4.00719C15.0261 4.14617 15.1297 4.33815 15.1585 4.54763L15.1667 4.66663V9.33329C15.1667 11.6118 13.5333 13.5076 11.375 13.9183V23.3333C11.3749 23.555 11.2907 23.7684 11.1394 23.9304C10.988 24.0924 10.7808 24.1909 10.5596 24.206C10.3385 24.2211 10.1198 24.1517 9.94782 24.0118C9.77584 23.8719 9.66339 23.6719 9.63317 23.4523L9.625 23.3333V13.9183C8.59923 13.7222 7.66883 13.1878 6.98253 12.4006C6.29623 11.6134 5.89365 10.6189 5.83917 9.57596L5.83333 9.33329V4.66663C5.8334 4.44493 5.91762 4.23153 6.06897 4.06954C6.22032 3.90754 6.42751 3.80904 6.64869 3.79393C6.86987 3.77882 7.08854 3.84823 7.26052 3.98813C7.43249 4.12803 7.54495 4.328 7.57517 4.54763L7.58333 4.66663V9.33329C7.58333 10.64 8.442 11.7448 9.625 12.117V4.66663C9.62507 4.44493 9.70929 4.23153 9.86064 4.06954C10.012 3.90754 10.2192 3.80904 10.4404 3.79393C10.6615 3.77882 10.8802 3.84823 11.0522 3.98813C11.2242 4.12803 11.3366 4.328 11.3668 4.54763L11.375 4.66663V12.1158C11.9317 11.9403 12.4231 11.602 12.7856 11.1445C13.148 10.6869 13.365 10.1312 13.4085 9.54913L13.4167 9.33329V4.66663C13.4167 4.43456 13.5089 4.212 13.6729 4.04791C13.837 3.88381 14.0596 3.79163 14.2917 3.79163ZM20.4167 15.75V5.69096C19.9371 5.8607 19.5171 6.16603 19.2077 6.56987C18.8982 6.97372 18.7127 7.45871 18.6737 7.96596L18.6667 8.16663V15.75H20.4167V5.69096V15.75Z" fill="#2F1A47"/>
</svg>
