<svg width="28" height="28" viewBox="0 0 28 28" fill="none" xmlns="http://www.w3.org/2000/svg">
    <path d="M21 3.5C21.2858 3.50004 21.5616 3.60495 21.7751 3.79483C21.9887 3.98472 22.1251 4.24637 22.1585 4.53017L22.1667 4.66667V23.3333C22.1663 23.6307 22.0525 23.9167 21.8484 24.1329C21.6442 24.3492 21.3652 24.4793 21.0684 24.4967C20.7715 24.5141 20.4792 24.4175 20.2512 24.2267C20.0232 24.0358 19.8766 23.7651 19.8415 23.4698L19.8333 23.3333V17.5H18.6667C18.3809 17.5 18.1051 17.3951 17.8916 17.2052C17.678 17.0153 17.5416 16.7536 17.5082 16.4698L17.5 16.3333V9.33333C17.5 6.755 19.25 3.5 21 3.5ZM14 3.5C14.2858 3.50004 14.5616 3.60495 14.7751 3.79483C14.9887 3.98472 15.1251 4.24637 15.1585 4.53017L15.1667 4.66667V10.5C15.1665 11.5347 14.8227 12.54 14.1892 13.3581C13.5557 14.1761 12.6684 14.7606 11.6667 15.0197V23.3333C11.6663 23.6307 11.5525 23.9167 11.3484 24.1329C11.1442 24.3492 10.8652 24.4793 10.5684 24.4967C10.2715 24.5141 9.97924 24.4175 9.75121 24.2267C9.52318 24.0358 9.37663 23.7651 9.34151 23.4698L9.33334 23.3333V15.0197C8.37137 14.771 7.51382 14.2219 6.8854 13.4523C6.25698 12.6826 5.89048 11.7326 5.83918 10.7403L5.83334 10.5V4.66667C5.83367 4.36931 5.94754 4.0833 6.15167 3.86707C6.3558 3.65084 6.63479 3.52073 6.93164 3.5033C7.22849 3.48587 7.52079 3.58245 7.74881 3.77331C7.97684 3.96416 8.12339 4.23489 8.15851 4.53017L8.16668 4.66667V10.5C8.16669 10.9096 8.27451 11.3119 8.4793 11.6666C8.68409 12.0213 8.97864 12.3159 9.33334 12.5207V4.66667C9.33367 4.36931 9.44754 4.0833 9.65167 3.86707C9.8558 3.65084 10.1348 3.52073 10.4316 3.5033C10.7285 3.48587 11.0208 3.58245 11.2488 3.77331C11.4768 3.96416 11.6234 4.23489 11.6585 4.53017L11.6667 4.66667L11.6678 12.5207C11.9934 12.3325 12.2687 12.0684 12.4702 11.7509C12.6717 11.4334 12.7935 11.0719 12.8252 10.6972L12.8333 10.5V4.66667C12.8333 4.35725 12.9563 4.0605 13.1751 3.84171C13.3938 3.62292 13.6906 3.5 14 3.5Z" fill="black"/>
</svg>
